<?xml version="1.0" encoding="UTF-8" standalone="no" ?>
<!DOCTYPE svg PUBLIC "-//W3C//DTD SVG 1.1//EN" "http://www.w3.org/Graphics/SVG/1.1/DTD/svg11.dtd">
<svg xmlns="http://www.w3.org/2000/svg" xmlns:xlink="http://www.w3.org/1999/xlink" version="1.1" width="1080" height="1080" viewBox="0 0 1080 1080" xml:space="preserve">
<desc>Created with Fabric.js 5.2.4</desc>
<defs>
</defs>
<g transform="matrix(1 0 0 1 540 540)" id="b163ac62-5753-4358-b379-ad93d1c8ebc4"  >
<rect style="stroke: none; stroke-width: 1; stroke-dasharray: none; stroke-linecap: butt; stroke-dashoffset: 0; stroke-linejoin: miter; stroke-miterlimit: 4; fill: rgb(255,255,255); fill-rule: nonzero; opacity: 1; visibility: hidden;" vector-effect="non-scaling-stroke"  x="-540" y="-540" rx="0" ry="0" width="1080" height="1080" />
</g>
<g transform="matrix(1 0 0 1 540 540)" id="12edc6e9-25e5-479e-a5f6-a6dd8b8845f4"  >
</g>
<g transform="matrix(1 0 0 1 540 540)"  >
<g style="" vector-effect="non-scaling-stroke"   >
		<g transform="matrix(13.45 0 0 13.45 -85.57 94.46)"  >
<path style="stroke: none; stroke-width: 1; stroke-dasharray: none; stroke-linecap: butt; stroke-dashoffset: 0; stroke-linejoin: miter; stroke-miterlimit: 4; fill: rgb(56,189,248); fill-rule: nonzero; opacity: 1;" vector-effect="non-scaling-stroke"  transform=" translate(-23.38, -36.76)" d="M 24.929 31.978 C 24.537999999999997 31.587000000000003 23.906 31.587000000000003 23.514999999999997 31.978 C 22.235999999999997 33.257000000000005 21.531 34.957 21.531 36.763000000000005 C 21.531 38.56900000000001 22.235999999999997 40.269000000000005 23.515 41.548 C 23.71 41.743 23.966 41.841 24.222 41.841 C 24.478 41.841 24.734 41.743 24.929000000000002 41.548 C 25.32 41.157000000000004 25.32 40.525 24.929000000000002 40.134 C 24.028000000000002 39.233 23.531000000000002 38.035 23.531000000000002 36.763 C 23.531000000000002 35.491 24.028000000000002 34.293 24.929000000000002 33.391999999999996 C 25.319 33.001 25.319 32.368 24.929 31.978 z" stroke-linecap="round" />
</g>
		<g transform="matrix(13.45 0 0 13.45 -152.1 -147.54)"  >
<path style="stroke: none; stroke-width: 1; stroke-dasharray: none; stroke-linecap: butt; stroke-dashoffset: 0; stroke-linejoin: miter; stroke-miterlimit: 4; fill: rgb(56,189,248); fill-rule: nonzero; opacity: 1;" vector-effect="non-scaling-stroke"  transform=" translate(-18.43, -18.77)" d="M 25.282 13.101 C 21.603 12.463000000000001 18.091 14.922 17.445999999999998 18.597 C 16.99 21.187 14.513999999999998 22.921 11.924999999999997 22.467000000000002 C 11.377999999999997 22.376 10.862999999999998 22.736 10.766999999999998 23.28 C 10.670999999999998 23.824 11.034999999999998 24.343 11.578999999999997 24.438000000000002 C 11.973999999999997 24.507 12.365999999999998 24.541000000000004 12.752999999999997 24.541000000000004 C 15.974999999999996 24.541000000000004 18.837999999999997 22.225000000000005 19.414999999999996 18.943000000000005 C 19.868999999999996 16.354000000000006 22.348999999999997 14.620000000000005 24.935999999999996 15.072000000000005 C 25.480999999999998 15.161000000000005 25.998999999999995 14.802000000000005 26.093999999999998 14.259000000000004 C 26.19 13.715 25.826 13.197 25.282 13.101 z" stroke-linecap="round" />
</g>
		<g transform="matrix(13.45 0 0 13.45 0 0)"  >
<path style="stroke: none; stroke-width: 1; stroke-dasharray: none; stroke-linecap: butt; stroke-dashoffset: 0; stroke-linejoin: miter; stroke-miterlimit: 4; fill: rgb(56,189,248); fill-rule: nonzero; opacity: 1;" vector-effect="non-scaling-stroke"  transform=" translate(-29.74, -29.74)" d="M 55.3 22.684 C 54.525999999999996 21.481 54.093999999999994 18.873 54.19 17.286 C 54.415 13.579 52.445 9.898000000000001 49.400999999999996 8.336000000000002 C 48.81399999999999 8.034000000000002 48.285999999999994 7.882000000000002 47.81999999999999 7.748000000000002 C 47.01899999999999 7.517000000000002 46.687999999999995 7.421000000000002 46.38499999999999 6.792000000000002 C 44.78899999999999 3.4760000000000018 43.02899999999999 3.0100000000000016 39.67399999999999 3.2280000000000015 C 39.36299999999999 3.2340000000000013 38.94199999999999 2.7680000000000016 38.510999999999996 2.3080000000000016 C 37.769999999999996 1.5150000000000015 36.779999999999994 0.4560000000000015 35.209999999999994 0.2760000000000016 L 34.70499999999999 0.2260000000000016 C 33.02299999999999 0.2260000000000016 31.39599999999999 0.7270000000000016 30.24199999999999 1.6000000000000016 C 29.91499999999999 1.8460000000000016 29.51099999999999 1.8480000000000016 29.23499999999999 1.6060000000000016 C 27.86399999999999 0.4030000000000016 25.797999999999988 -0.4879999999999982 24.37699999999999 0.2980000000000016 C 22.81899999999999 0.6050000000000015 21.820999999999987 1.5930000000000015 21.08399999999999 2.3230000000000013 C 20.50099999999999 2.9000000000000012 20.11999999999999 3.2670000000000012 19.80299999999999 3.227000000000001 C 16.45199999999999 3.0120000000000013 14.68899999999999 3.4760000000000013 13.09199999999999 6.791000000000001 C 12.78999999999999 7.420000000000002 12.458999999999989 7.516000000000001 11.65799999999999 7.747000000000002 C 11.19299999999999 7.881000000000002 10.66499999999999 8.033000000000001 10.076999999999991 8.335 C 7.032999999999991 9.898000000000001 5.063999999999991 13.578000000000001 5.287999999999991 17.285 C 5.3839999999999915 18.873 4.951999999999991 21.48 4.177999999999991 22.683 C 2.269999999999991 25.652 2.269999999999991 29.797 4.177999999999991 32.765 C 4.472999999999991 33.223 4.904999999999991 33.756 5.404999999999991 34.374 C 6.296999999999992 35.476 7.7909999999999915 37.319 7.739999999999991 38.163000000000004 C 7.512999999999991 41.899 9.792999999999992 46.20400000000001 12.821999999999992 47.759 C 13.366999999999992 48.039 13.458999999999993 48.322 13.664999999999992 49.179 C 13.778999999999993 49.653 13.920999999999992 50.242000000000004 14.226999999999991 50.876000000000005 C 15.049999999999992 52.587 16.34099999999999 53.077000000000005 17.28299999999999 53.437000000000005 C 18.21899999999999 53.792 18.60599999999999 53.940000000000005 18.74799999999999 54.96600000000001 C 19.07699999999999 57.34900000000001 20.35199999999999 58.95600000000001 22.24499999999999 59.37500000000001 C 22.56199999999999 59.44400000000001 22.88899999999999 59.479000000000006 23.21999999999999 59.479000000000006 C 25.351999999999993 59.479000000000006 27.67799999999999 58.06400000000001 29.150999999999993 55.778000000000006 C 29.327999999999992 55.504000000000005 29.621999999999993 55.473000000000006 29.738999999999994 55.473000000000006 C 29.855999999999995 55.473000000000006 30.149999999999995 55.50300000000001 30.326999999999995 55.778000000000006 C 32.028999999999996 58.419000000000004 34.86899999999999 59.892 37.233 59.376000000000005 C 39.126999999999995 58.95700000000001 40.400999999999996 57.35000000000001 40.73 54.967000000000006 C 40.872 53.941 41.259 53.793000000000006 42.195 53.438 C 43.137 53.079 44.428 52.588 45.252 50.877 C 45.557 50.243 45.699000000000005 49.653000000000006 45.813 49.18 C 46.02 48.324 46.111000000000004 48.04 46.656000000000006 47.76 C 49.684000000000005 46.205 51.964000000000006 41.900999999999996 51.73800000000001 38.164 C 51.687000000000005 37.32 53.181000000000004 35.476 54.07300000000001 34.375 C 54.57300000000001 33.757 55.00500000000001 33.224 55.300000000000004 32.766 C 57.208 29.798 57.208 25.653 55.3 22.684 z M 54.703 28.297 C 54.614000000000004 27.836000000000002 54.227000000000004 27.481 53.74 27.481 C 53.188 27.481 52.74 27.929000000000002 52.74 28.481 C 52.74 29.033 53.188 29.481 53.74 29.481 C 54.144000000000005 29.481 54.488 29.239 54.645 28.894000000000002 C 54.505 29.811000000000003 54.196000000000005 30.693 53.725 31.484 C 53.18 31.492 52.74 31.934 52.74 32.481 C 52.74 32.584 52.77 32.677 52.798 32.77 C 52.707 32.883 52.614000000000004 32.998000000000005 52.519 33.115 C 52.397 33.265 52.272999999999996 33.419000000000004 52.15 33.573 C 52.024 33.516 51.887 33.48 51.74 33.48 C 51.188 33.48 50.74 33.928 50.74 34.48 C 50.74 34.724 50.838 34.94 50.983000000000004 35.114 C 50.81100000000001 35.364 50.653000000000006 35.613 50.507000000000005 35.861999999999995 C 50.324000000000005 35.635 50.05500000000001 35.48 49.74 35.48 C 49.188 35.48 48.74 35.928 48.74 36.48 C 48.74 37.032 49.188 37.48 49.74 37.48 C 49.772 37.48 49.800000000000004 37.464 49.831 37.461999999999996 C 49.767 37.742 49.726000000000006 38.017999999999994 49.742000000000004 38.285 C 49.766000000000005 38.675999999999995 49.74700000000001 39.08 49.70100000000001 39.488 C 49.168000000000006 39.51 48.74000000000001 39.942 48.74000000000001 40.48 C 48.74000000000001 40.858999999999995 48.95900000000001 41.175999999999995 49.26900000000001 41.346 C 49.106000000000016 41.83 48.91800000000001 42.306999999999995 48.68400000000001 42.76 C 48.71100000000001 42.669 48.74000000000001 42.58 48.74000000000001 42.48 C 48.74000000000001 41.928 48.29200000000001 41.48 47.74000000000001 41.48 C 47.18800000000001 41.48 46.74000000000001 41.928 46.74000000000001 42.48 C 46.74000000000001 43.032 47.18800000000001 43.48 47.74000000000001 43.48 C 48.00500000000001 43.48 48.24200000000001 43.373 48.42100000000001 43.205 C 47.708000000000006 44.424 46.776 45.449999999999996 45.74400000000001 45.98 C 45.26400000000001 46.226 44.925000000000004 46.517999999999994 44.67000000000001 46.83 C 44.711000000000006 46.72 44.74100000000001 46.604 44.74100000000001 46.48 C 44.74100000000001 45.928 44.293000000000006 45.48 43.74100000000001 45.48 C 43.18900000000001 45.48 42.74100000000001 45.928 42.74100000000001 46.48 C 42.74100000000001 47.032 43.18900000000001 47.48 43.74100000000001 47.48 C 43.99400000000001 47.48 44.21900000000001 47.378 44.39500000000001 47.223 C 44.11400000000001 47.708 43.98700000000001 48.225 43.87000000000001 48.71 C 43.808000000000014 48.968 43.73400000000001 49.233000000000004 43.64500000000001 49.5 C 43.14000000000001 49.55 42.74000000000001 49.962 42.74000000000001 50.481 C 42.74000000000001 50.619 42.76800000000001 50.751000000000005 42.81900000000001 50.871 C 42.49100000000001 51.160000000000004 42.11000000000001 51.327000000000005 41.68200000000001 51.493 C 41.47400000000001 51.506 41.290000000000006 51.585 41.13500000000001 51.705000000000005 C 40.16300000000001 52.096000000000004 39.02000000000001 52.73400000000001 38.74900000000001 54.694 C 38.60000000000001 55.776 38.14100000000001 57.128 36.80200000000001 57.423 C 35.266000000000005 57.764 33.24700000000001 56.616 32.00900000000001 54.694 C 31.51600000000001 53.93 30.668000000000006 53.473 29.74000000000001 53.473 C 28.812000000000012 53.473 27.96400000000001 53.93 27.47000000000001 54.694 C 26.23300000000001 56.616 24.21900000000001 57.762 22.67800000000001 57.423 C 21.339000000000013 57.127 20.88000000000001 55.776 20.731000000000012 54.694 C 20.427000000000014 52.494 19.022000000000013 51.959 17.996000000000013 51.569 C 17.165000000000013 51.253 16.508000000000013 51.003 16.031000000000013 50.010000000000005 C 15.885000000000012 49.708000000000006 15.795000000000012 49.409000000000006 15.717000000000013 49.114000000000004 C 15.722000000000014 49.074000000000005 15.740000000000013 49.039 15.740000000000013 48.998000000000005 C 15.740000000000013 46.24100000000001 17.98300000000001 43.998000000000005 20.740000000000013 43.998000000000005 C 21.292000000000012 43.998000000000005 21.740000000000013 43.551 21.740000000000013 42.998000000000005 C 21.740000000000013 42.44500000000001 21.292000000000012 41.998000000000005 20.740000000000013 41.998000000000005 C 17.82900000000001 41.998000000000005 15.329000000000013 43.786 14.275000000000013 46.32000000000001 C 14.116000000000012 46.20100000000001 13.942000000000013 46.086000000000006 13.737000000000013 45.980000000000004 C 11.430000000000012 44.79600000000001 9.562000000000012 41.2 9.738000000000012 38.285000000000004 C 9.742000000000012 38.214000000000006 9.727000000000013 38.141000000000005 9.725000000000012 38.069 C 9.727000000000013 38.044000000000004 9.739000000000011 38.023 9.739000000000011 37.997 C 9.739000000000011 34.688 12.43000000000001 31.997 15.739000000000011 31.997 C 20.150000000000013 31.997 23.73900000000001 28.408 23.73900000000001 23.997 C 23.73900000000001 23.444 23.29100000000001 22.997 22.73900000000001 22.997 C 22.187000000000012 22.997 21.73900000000001 23.444 21.73900000000001 23.997 C 21.73900000000001 27.306 19.048000000000012 29.997 15.739000000000011 29.997 C 12.419000000000011 29.997 9.566000000000011 32.031 8.357000000000012 34.918 C 7.9200000000000115 34.304 7.430000000000012 33.695 6.9600000000000115 33.115 C 6.516000000000012 32.567 6.097000000000012 32.050000000000004 5.862000000000012 31.683000000000003 C 4.363000000000012 29.353 4.363000000000012 26.096000000000004 5.862000000000012 23.765000000000004 C 6.905000000000012 22.143000000000004 7.405000000000012 19.135000000000005 7.285000000000012 17.163000000000004 C 7.110000000000012 14.270000000000003 8.668000000000012 11.306000000000004 10.991000000000012 10.113000000000003 C 11.406000000000011 9.900000000000004 11.817000000000013 9.782000000000004 12.213000000000012 9.667000000000003 C 12.427000000000012 9.605000000000004 12.647000000000011 9.540000000000003 12.868000000000011 9.461000000000004 C 13.037000000000011 9.775000000000004 13.357000000000012 9.997000000000003 13.739000000000011 9.997000000000003 C 15.393000000000011 9.997000000000003 16.73900000000001 11.343000000000004 16.73900000000001 12.997000000000003 C 16.73900000000001 13.550000000000004 17.187000000000012 13.997000000000003 17.73900000000001 13.997000000000003 C 18.29100000000001 13.997000000000003 18.73900000000001 13.550000000000004 18.73900000000001 12.997000000000003 C 18.73900000000001 10.552000000000003 16.972000000000012 8.520000000000003 14.650000000000011 8.089000000000002 C 14.735000000000012 7.956000000000002 14.81700000000001 7.8160000000000025 14.89400000000001 7.657000000000002 C 15.858000000000011 5.654000000000002 16.59900000000001 5.173000000000002 18.44100000000001 5.173000000000002 C 18.80500000000001 5.173000000000002 19.213000000000008 5.192000000000002 19.67400000000001 5.222000000000002 C 20.92000000000001 5.299000000000002 21.75300000000001 4.474000000000002 22.49100000000001 3.743000000000002 C 23.19200000000001 3.050000000000002 23.85300000000001 2.394000000000002 24.88600000000001 2.237000000000002 L 25.21500000000001 2.176000000000002 L 25.37300000000001 2.030000000000002 C 25.740000000000013 1.865000000000002 26.909000000000013 2.222000000000002 27.917000000000012 3.107000000000002 C 28.84900000000001 3.924000000000002 30.182000000000013 3.996000000000002 31.23900000000001 3.326000000000002 C 31.388000000000012 3.415000000000002 31.55300000000001 3.479000000000002 31.73900000000001 3.479000000000002 C 32.27000000000001 3.479000000000002 32.69300000000001 3.062000000000002 32.72700000000001 2.540000000000002 C 33.20700000000001 2.379000000000002 33.73200000000001 2.274000000000002 34.27100000000001 2.2380000000000018 L 34.73900000000001 2.2470000000000017 C 34.75500000000001 2.2470000000000017 34.768000000000015 2.254000000000002 34.78400000000001 2.254000000000002 C 34.768 2.33 34.74 2.401 34.74 2.481 C 34.74 3.033 35.188 3.481 35.74 3.481 C 36.050000000000004 3.481 36.317 3.331 36.5 3.109 C 36.675 3.277 36.855 3.464 37.051 3.673 C 37.068000000000005 3.691 37.085 3.709 37.102000000000004 3.727 C 36.885 3.91 36.74 4.175 36.74 4.481 C 36.74 5.0329999999999995 37.188 5.481 37.74 5.481 C 38.113 5.481 38.426 5.2669999999999995 38.598 4.9639999999999995 C 38.955 5.140999999999999 39.352 5.244 39.804 5.223 C 40.269000000000005 5.194 40.663000000000004 5.1819999999999995 41.029 5.183 C 41.21 5.367 41.461000000000006 5.481 41.74 5.481 C 41.945 5.481 42.125 5.404 42.284 5.298 C 42.613 5.377 42.894 5.51 43.153 5.693 C 42.909 5.875 42.74 6.153 42.74 6.481 C 42.74 7.0329999999999995 43.188 7.481 43.74 7.481 C 43.981 7.481 44.193000000000005 7.385 44.365 7.243 C 44.438 7.381 44.509 7.503 44.584 7.658 C 44.659000000000006 7.814 44.741 7.952 44.824000000000005 8.083 C 44.77100000000001 8.205 44.74 8.339 44.74 8.481 C 44.74 9.033 45.188 9.481 45.74 9.481 C 45.932 9.481 46.101 9.413 46.253 9.318999999999999 C 46.574 9.463 46.899 9.562 47.213 9.652999999999999 C 46.935 9.831 46.74 10.126999999999999 46.74 10.480999999999998 C 46.74 11.032999999999998 47.188 11.480999999999998 47.74 11.480999999999998 C 48.292 11.480999999999998 48.74 11.032999999999998 48.74 10.480999999999998 C 48.74 10.396999999999998 48.712 10.320999999999998 48.692 10.242999999999999 C 49.913 10.939999999999998 50.897 12.125999999999998 51.511 13.526999999999997 C 51.072 13.632999999999997 50.74 14.009999999999998 50.74 14.480999999999998 C 50.74 15.032999999999998 51.188 15.480999999999998 51.74 15.480999999999998 C 51.86 15.480999999999998 51.971000000000004 15.450999999999999 52.078 15.412999999999998 C 52.177 15.990999999999998 52.230000000000004 16.578 52.194 17.165 C 52.186 17.301 52.188 17.453 52.185 17.598 C 52.049 17.529 51.902 17.482 51.74 17.482 C 51.188 17.482 50.74 17.93 50.74 18.482 C 50.74 19.034 51.188 19.482 51.74 19.482 C 51.941 19.482 52.118 19.407999999999998 52.275 19.305 C 52.446999999999996 20.822 52.857 22.427 53.49 23.532 C 53.062000000000005 23.646 52.741 24.018 52.741 24.481 C 52.741 25.033 53.189 25.481 53.741 25.481 C 53.963 25.481 54.157 25.395000000000003 54.323 25.273000000000003 C 54.652 26.239 54.778 27.273 54.703 28.297 z" stroke-linecap="round" />
</g>
		<g transform="matrix(13.45 0 0 13.45 107.61 305.86)"  >
<circle style="stroke: none; stroke-width: 1; stroke-dasharray: none; stroke-linecap: butt; stroke-dashoffset: 0; stroke-linejoin: miter; stroke-miterlimit: 4; fill: rgb(56,189,248); fill-rule: nonzero; opacity: 1;" vector-effect="non-scaling-stroke"  cx="0" cy="0" r="1" />
</g>
		<g transform="matrix(13.45 0 0 13.45 53.81 305.86)"  >
<circle style="stroke: none; stroke-width: 1; stroke-dasharray: none; stroke-linecap: butt; stroke-dashoffset: 0; stroke-linejoin: miter; stroke-miterlimit: 4; fill: rgb(56,189,248); fill-rule: nonzero; opacity: 1;" vector-effect="non-scaling-stroke"  cx="0" cy="0" r="1" />
</g>
		<g transform="matrix(13.45 0 0 13.45 80.71 278.96)"  >
<circle style="stroke: none; stroke-width: 1; stroke-dasharray: none; stroke-linecap: butt; stroke-dashoffset: 0; stroke-linejoin: miter; stroke-miterlimit: 4; fill: rgb(56,189,248); fill-rule: nonzero; opacity: 1;" vector-effect="non-scaling-stroke"  cx="0" cy="0" r="1" />
</g>
		<g transform="matrix(13.45 0 0 13.45 134.51 278.96)"  >
<circle style="stroke: none; stroke-width: 1; stroke-dasharray: none; stroke-linecap: butt; stroke-dashoffset: 0; stroke-linejoin: miter; stroke-miterlimit: 4; fill: rgb(56,189,248); fill-rule: nonzero; opacity: 1;" vector-effect="non-scaling-stroke"  cx="0" cy="0" r="1" />
</g>
		<g transform="matrix(13.45 0 0 13.45 26.91 278.96)"  >
<circle style="stroke: none; stroke-width: 1; stroke-dasharray: none; stroke-linecap: butt; stroke-dashoffset: 0; stroke-linejoin: miter; stroke-miterlimit: 4; fill: rgb(56,189,248); fill-rule: nonzero; opacity: 1;" vector-effect="non-scaling-stroke"  cx="0" cy="0" r="1" />
</g>
		<g transform="matrix(13.45 0 0 13.45 134.51 225.16)"  >
<circle style="stroke: none; stroke-width: 1; stroke-dasharray: none; stroke-linecap: butt; stroke-dashoffset: 0; stroke-linejoin: miter; stroke-miterlimit: 4; fill: rgb(56,189,248); fill-rule: nonzero; opacity: 1;" vector-effect="non-scaling-stroke"  cx="0" cy="0" r="1" />
</g>
		<g transform="matrix(13.45 0 0 13.45 26.91 225.16)"  >
<circle style="stroke: none; stroke-width: 1; stroke-dasharray: none; stroke-linecap: butt; stroke-dashoffset: 0; stroke-linejoin: miter; stroke-miterlimit: 4; fill: rgb(56,189,248); fill-rule: nonzero; opacity: 1;" vector-effect="non-scaling-stroke"  cx="0" cy="0" r="1" />
</g>
		<g transform="matrix(13.45 0 0 13.45 53.81 198.26)"  >
<circle style="stroke: none; stroke-width: 1; stroke-dasharray: none; stroke-linecap: butt; stroke-dashoffset: 0; stroke-linejoin: miter; stroke-miterlimit: 4; fill: rgb(56,189,248); fill-rule: nonzero; opacity: 1;" vector-effect="non-scaling-stroke"  cx="0" cy="0" r="1" />
</g>
		<g transform="matrix(13.45 0 0 13.45 80.71 171.37)"  >
<circle style="stroke: none; stroke-width: 1; stroke-dasharray: none; stroke-linecap: butt; stroke-dashoffset: 0; stroke-linejoin: miter; stroke-miterlimit: 4; fill: rgb(56,189,248); fill-rule: nonzero; opacity: 1;" vector-effect="non-scaling-stroke"  cx="0" cy="0" r="1" />
</g>
		<g transform="matrix(13.45 0 0 13.45 134.51 171.37)"  >
<circle style="stroke: none; stroke-width: 1; stroke-dasharray: none; stroke-linecap: butt; stroke-dashoffset: 0; stroke-linejoin: miter; stroke-miterlimit: 4; fill: rgb(56,189,248); fill-rule: nonzero; opacity: 1;" vector-effect="non-scaling-stroke"  cx="0" cy="0" r="1" />
</g>
		<g transform="matrix(13.45 0 0 13.45 26.91 171.37)"  >
<circle style="stroke: none; stroke-width: 1; stroke-dasharray: none; stroke-linecap: butt; stroke-dashoffset: 0; stroke-linejoin: miter; stroke-miterlimit: 4; fill: rgb(56,189,248); fill-rule: nonzero; opacity: 1;" vector-effect="non-scaling-stroke"  cx="0" cy="0" r="1" />
</g>
		<g transform="matrix(13.45 0 0 13.45 107.61 144.47)"  >
<circle style="stroke: none; stroke-width: 1; stroke-dasharray: none; stroke-linecap: butt; stroke-dashoffset: 0; stroke-linejoin: miter; stroke-miterlimit: 4; fill: rgb(56,189,248); fill-rule: nonzero; opacity: 1;" vector-effect="non-scaling-stroke"  cx="0" cy="0" r="1" />
</g>
		<g transform="matrix(13.45 0 0 13.45 26.91 117.57)"  >
<circle style="stroke: none; stroke-width: 1; stroke-dasharray: none; stroke-linecap: butt; stroke-dashoffset: 0; stroke-linejoin: miter; stroke-miterlimit: 4; fill: rgb(56,189,248); fill-rule: nonzero; opacity: 1;" vector-effect="non-scaling-stroke"  cx="0" cy="0" r="1" />
</g>
		<g transform="matrix(13.45 0 0 13.45 107.61 90.67)"  >
<circle style="stroke: none; stroke-width: 1; stroke-dasharray: none; stroke-linecap: butt; stroke-dashoffset: 0; stroke-linejoin: miter; stroke-miterlimit: 4; fill: rgb(56,189,248); fill-rule: nonzero; opacity: 1;" vector-effect="non-scaling-stroke"  cx="0" cy="0" r="1" />
</g>
		<g transform="matrix(13.45 0 0 13.45 53.81 90.67)"  >
<circle style="stroke: none; stroke-width: 1; stroke-dasharray: none; stroke-linecap: butt; stroke-dashoffset: 0; stroke-linejoin: miter; stroke-miterlimit: 4; fill: rgb(56,189,248); fill-rule: nonzero; opacity: 1;" vector-effect="non-scaling-stroke"  cx="0" cy="0" r="1" />
</g>
		<g transform="matrix(13.45 0 0 13.45 26.91 63.77)"  >
<circle style="stroke: none; stroke-width: 1; stroke-dasharray: none; stroke-linecap: butt; stroke-dashoffset: 0; stroke-linejoin: miter; stroke-miterlimit: 4; fill: rgb(56,189,248); fill-rule: nonzero; opacity: 1;" vector-effect="non-scaling-stroke"  cx="0" cy="0" r="1" />
</g>
		<g transform="matrix(13.45 0 0 13.45 53.81 36.87)"  >
<circle style="stroke: none; stroke-width: 1; stroke-dasharray: none; stroke-linecap: butt; stroke-dashoffset: 0; stroke-linejoin: miter; stroke-miterlimit: 4; fill: rgb(56,189,248); fill-rule: nonzero; opacity: 1;" vector-effect="non-scaling-stroke"  cx="0" cy="0" r="1" />
</g>
		<g transform="matrix(13.45 0 0 13.45 80.71 9.97)"  >
<circle style="stroke: none; stroke-width: 1; stroke-dasharray: none; stroke-linecap: butt; stroke-dashoffset: 0; stroke-linejoin: miter; stroke-miterlimit: 4; fill: rgb(56,189,248); fill-rule: nonzero; opacity: 1;" vector-effect="non-scaling-stroke"  cx="0" cy="0" r="1" />
</g>
		<g transform="matrix(13.45 0 0 13.45 134.51 9.97)"  >
<circle style="stroke: none; stroke-width: 1; stroke-dasharray: none; stroke-linecap: butt; stroke-dashoffset: 0; stroke-linejoin: miter; stroke-miterlimit: 4; fill: rgb(56,189,248); fill-rule: nonzero; opacity: 1;" vector-effect="non-scaling-stroke"  cx="0" cy="0" r="1" />
</g>
		<g transform="matrix(13.45 0 0 13.45 26.91 9.97)"  >
<circle style="stroke: none; stroke-width: 1; stroke-dasharray: none; stroke-linecap: butt; stroke-dashoffset: 0; stroke-linejoin: miter; stroke-miterlimit: 4; fill: rgb(56,189,248); fill-rule: nonzero; opacity: 1;" vector-effect="non-scaling-stroke"  cx="0" cy="0" r="1" />
</g>
		<g transform="matrix(13.45 0 0 13.45 107.61 -16.93)"  >
<circle style="stroke: none; stroke-width: 1; stroke-dasharray: none; stroke-linecap: butt; stroke-dashoffset: 0; stroke-linejoin: miter; stroke-miterlimit: 4; fill: rgb(56,189,248); fill-rule: nonzero; opacity: 1;" vector-effect="non-scaling-stroke"  cx="0" cy="0" r="1" />
</g>
		<g transform="matrix(13.45 0 0 13.45 80.71 -43.83)"  >
<circle style="stroke: none; stroke-width: 1; stroke-dasharray: none; stroke-linecap: butt; stroke-dashoffset: 0; stroke-linejoin: miter; stroke-miterlimit: 4; fill: rgb(56,189,248); fill-rule: nonzero; opacity: 1;" vector-effect="non-scaling-stroke"  cx="0" cy="0" r="1" />
</g>
		<g transform="matrix(13.45 0 0 13.45 134.51 -43.83)"  >
<circle style="stroke: none; stroke-width: 1; stroke-dasharray: none; stroke-linecap: butt; stroke-dashoffset: 0; stroke-linejoin: miter; stroke-miterlimit: 4; fill: rgb(56,189,248); fill-rule: nonzero; opacity: 1;" vector-effect="non-scaling-stroke"  cx="0" cy="0" r="1" />
</g>
		<g transform="matrix(13.45 0 0 13.45 26.91 -43.83)"  >
<circle style="stroke: none; stroke-width: 1; stroke-dasharray: none; stroke-linecap: butt; stroke-dashoffset: 0; stroke-linejoin: miter; stroke-miterlimit: 4; fill: rgb(56,189,248); fill-rule: nonzero; opacity: 1;" vector-effect="non-scaling-stroke"  cx="0" cy="0" r="1" />
</g>
		<g transform="matrix(13.45 0 0 13.45 53.81 -70.73)"  >
<circle style="stroke: none; stroke-width: 1; stroke-dasharray: none; stroke-linecap: butt; stroke-dashoffset: 0; stroke-linejoin: miter; stroke-miterlimit: 4; fill: rgb(56,189,248); fill-rule: nonzero; opacity: 1;" vector-effect="non-scaling-stroke"  cx="0" cy="0" r="1" />
</g>
		<g transform="matrix(13.45 0 0 13.45 80.71 -97.63)"  >
<circle style="stroke: none; stroke-width: 1; stroke-dasharray: none; stroke-linecap: butt; stroke-dashoffset: 0; stroke-linejoin: miter; stroke-miterlimit: 4; fill: rgb(56,189,248); fill-rule: nonzero; opacity: 1;" vector-effect="non-scaling-stroke"  cx="0" cy="0" r="1" />
</g>
		<g transform="matrix(13.45 0 0 13.45 107.61 -124.53)"  >
<circle style="stroke: none; stroke-width: 1; stroke-dasharray: none; stroke-linecap: butt; stroke-dashoffset: 0; stroke-linejoin: miter; stroke-miterlimit: 4; fill: rgb(56,189,248); fill-rule: nonzero; opacity: 1;" vector-effect="non-scaling-stroke"  cx="0" cy="0" r="1" />
</g>
		<g transform="matrix(13.45 0 0 13.45 53.81 -124.53)"  >
<circle style="stroke: none; stroke-width: 1; stroke-dasharray: none; stroke-linecap: butt; stroke-dashoffset: 0; stroke-linejoin: miter; stroke-miterlimit: 4; fill: rgb(56,189,248); fill-rule: nonzero; opacity: 1;" vector-effect="non-scaling-stroke"  cx="0" cy="0" r="1" />
</g>
		<g transform="matrix(13.45 0 0 13.45 26.91 -151.43)"  >
<circle style="stroke: none; stroke-width: 1; stroke-dasharray: none; stroke-linecap: butt; stroke-dashoffset: 0; stroke-linejoin: miter; stroke-miterlimit: 4; fill: rgb(56,189,248); fill-rule: nonzero; opacity: 1;" vector-effect="non-scaling-stroke"  cx="0" cy="0" r="1" />
</g>
		<g transform="matrix(13.45 0 0 13.45 107.61 -178.33)"  >
<circle style="stroke: none; stroke-width: 1; stroke-dasharray: none; stroke-linecap: butt; stroke-dashoffset: 0; stroke-linejoin: miter; stroke-miterlimit: 4; fill: rgb(56,189,248); fill-rule: nonzero; opacity: 1;" vector-effect="non-scaling-stroke"  cx="0" cy="0" r="1" />
</g>
		<g transform="matrix(13.45 0 0 13.45 53.81 -178.33)"  >
<circle style="stroke: none; stroke-width: 1; stroke-dasharray: none; stroke-linecap: butt; stroke-dashoffset: 0; stroke-linejoin: miter; stroke-miterlimit: 4; fill: rgb(56,189,248); fill-rule: nonzero; opacity: 1;" vector-effect="non-scaling-stroke"  cx="0" cy="0" r="1" />
</g>
		<g transform="matrix(13.45 0 0 13.45 80.71 -205.23)"  >
<circle style="stroke: none; stroke-width: 1; stroke-dasharray: none; stroke-linecap: butt; stroke-dashoffset: 0; stroke-linejoin: miter; stroke-miterlimit: 4; fill: rgb(56,189,248); fill-rule: nonzero; opacity: 1;" vector-effect="non-scaling-stroke"  cx="0" cy="0" r="1" />
</g>
		<g transform="matrix(13.45 0 0 13.45 134.51 -205.23)"  >
<circle style="stroke: none; stroke-width: 1; stroke-dasharray: none; stroke-linecap: butt; stroke-dashoffset: 0; stroke-linejoin: miter; stroke-miterlimit: 4; fill: rgb(56,189,248); fill-rule: nonzero; opacity: 1;" vector-effect="non-scaling-stroke"  cx="0" cy="0" r="1" />
</g>
		<g transform="matrix(13.45 0 0 13.45 107.61 -232.13)"  >
<circle style="stroke: none; stroke-width: 1; stroke-dasharray: none; stroke-linecap: butt; stroke-dashoffset: 0; stroke-linejoin: miter; stroke-miterlimit: 4; fill: rgb(56,189,248); fill-rule: nonzero; opacity: 1;" vector-effect="non-scaling-stroke"  cx="0" cy="0" r="1" />
</g>
		<g transform="matrix(13.45 0 0 13.45 53.81 -232.13)"  >
<circle style="stroke: none; stroke-width: 1; stroke-dasharray: none; stroke-linecap: butt; stroke-dashoffset: 0; stroke-linejoin: miter; stroke-miterlimit: 4; fill: rgb(56,189,248); fill-rule: nonzero; opacity: 1;" vector-effect="non-scaling-stroke"  cx="0" cy="0" r="1" />
</g>
		<g transform="matrix(13.45 0 0 13.45 26.91 -259.03)"  >
<circle style="stroke: none; stroke-width: 1; stroke-dasharray: none; stroke-linecap: butt; stroke-dashoffset: 0; stroke-linejoin: miter; stroke-miterlimit: 4; fill: rgb(56,189,248); fill-rule: nonzero; opacity: 1;" vector-effect="non-scaling-stroke"  cx="0" cy="0" r="1" />
</g>
		<g transform="matrix(13.45 0 0 13.45 107.61 -285.93)"  >
<circle style="stroke: none; stroke-width: 1; stroke-dasharray: none; stroke-linecap: butt; stroke-dashoffset: 0; stroke-linejoin: miter; stroke-miterlimit: 4; fill: rgb(56,189,248); fill-rule: nonzero; opacity: 1;" vector-effect="non-scaling-stroke"  cx="0" cy="0" r="1" />
</g>
		<g transform="matrix(13.45 0 0 13.45 134.51 -312.83)"  >
<circle style="stroke: none; stroke-width: 1; stroke-dasharray: none; stroke-linecap: butt; stroke-dashoffset: 0; stroke-linejoin: miter; stroke-miterlimit: 4; fill: rgb(56,189,248); fill-rule: nonzero; opacity: 1;" vector-effect="non-scaling-stroke"  cx="0" cy="0" r="1" />
</g>
		<g transform="matrix(13.45 0 0 13.45 26.91 -312.83)"  >
<circle style="stroke: none; stroke-width: 1; stroke-dasharray: none; stroke-linecap: butt; stroke-dashoffset: 0; stroke-linejoin: miter; stroke-miterlimit: 4; fill: rgb(56,189,248); fill-rule: nonzero; opacity: 1;" vector-effect="non-scaling-stroke"  cx="0" cy="0" r="1" />
</g>
		<g transform="matrix(13.45 0 0 13.45 53.81 -339.73)"  >
<circle style="stroke: none; stroke-width: 1; stroke-dasharray: none; stroke-linecap: butt; stroke-dashoffset: 0; stroke-linejoin: miter; stroke-miterlimit: 4; fill: rgb(56,189,248); fill-rule: nonzero; opacity: 1;" vector-effect="non-scaling-stroke"  cx="0" cy="0" r="1" />
</g>
		<g transform="matrix(13.45 0 0 13.45 161.41 252.06)"  >
<circle style="stroke: none; stroke-width: 1; stroke-dasharray: none; stroke-linecap: butt; stroke-dashoffset: 0; stroke-linejoin: miter; stroke-miterlimit: 4; fill: rgb(56,189,248); fill-rule: nonzero; opacity: 1;" vector-effect="non-scaling-stroke"  cx="0" cy="0" r="1" />
</g>
		<g transform="matrix(13.45 0 0 13.45 215.21 198.26)"  >
<circle style="stroke: none; stroke-width: 1; stroke-dasharray: none; stroke-linecap: butt; stroke-dashoffset: 0; stroke-linejoin: miter; stroke-miterlimit: 4; fill: rgb(56,189,248); fill-rule: nonzero; opacity: 1;" vector-effect="non-scaling-stroke"  cx="0" cy="0" r="1" />
</g>
		<g transform="matrix(13.45 0 0 13.45 188.31 171.37)"  >
<circle style="stroke: none; stroke-width: 1; stroke-dasharray: none; stroke-linecap: butt; stroke-dashoffset: 0; stroke-linejoin: miter; stroke-miterlimit: 4; fill: rgb(56,189,248); fill-rule: nonzero; opacity: 1;" vector-effect="non-scaling-stroke"  cx="0" cy="0" r="1" />
</g>
		<g transform="matrix(13.45 0 0 13.45 215.21 144.47)"  >
<circle style="stroke: none; stroke-width: 1; stroke-dasharray: none; stroke-linecap: butt; stroke-dashoffset: 0; stroke-linejoin: miter; stroke-miterlimit: 4; fill: rgb(56,189,248); fill-rule: nonzero; opacity: 1;" vector-effect="non-scaling-stroke"  cx="0" cy="0" r="1" />
</g>
		<g transform="matrix(13.45 0 0 13.45 242.11 117.57)"  >
<circle style="stroke: none; stroke-width: 1; stroke-dasharray: none; stroke-linecap: butt; stroke-dashoffset: 0; stroke-linejoin: miter; stroke-miterlimit: 4; fill: rgb(56,189,248); fill-rule: nonzero; opacity: 1;" vector-effect="non-scaling-stroke"  cx="0" cy="0" r="1" />
</g>
		<g transform="matrix(13.45 0 0 13.45 215.21 90.67)"  >
<circle style="stroke: none; stroke-width: 1; stroke-dasharray: none; stroke-linecap: butt; stroke-dashoffset: 0; stroke-linejoin: miter; stroke-miterlimit: 4; fill: rgb(56,189,248); fill-rule: nonzero; opacity: 1;" vector-effect="non-scaling-stroke"  cx="0" cy="0" r="1" />
</g>
		<g transform="matrix(13.45 0 0 13.45 161.41 90.67)"  >
<circle style="stroke: none; stroke-width: 1; stroke-dasharray: none; stroke-linecap: butt; stroke-dashoffset: 0; stroke-linejoin: miter; stroke-miterlimit: 4; fill: rgb(56,189,248); fill-rule: nonzero; opacity: 1;" vector-effect="non-scaling-stroke"  cx="0" cy="0" r="1" />
</g>
		<g transform="matrix(13.45 0 0 13.45 215.21 36.87)"  >
<circle style="stroke: none; stroke-width: 1; stroke-dasharray: none; stroke-linecap: butt; stroke-dashoffset: 0; stroke-linejoin: miter; stroke-miterlimit: 4; fill: rgb(56,189,248); fill-rule: nonzero; opacity: 1;" vector-effect="non-scaling-stroke"  cx="0" cy="0" r="1" />
</g>
		<g transform="matrix(13.45 0 0 13.45 269.01 36.87)"  >
<circle style="stroke: none; stroke-width: 1; stroke-dasharray: none; stroke-linecap: butt; stroke-dashoffset: 0; stroke-linejoin: miter; stroke-miterlimit: 4; fill: rgb(56,189,248); fill-rule: nonzero; opacity: 1;" vector-effect="non-scaling-stroke"  cx="0" cy="0" r="1" />
</g>
		<g transform="matrix(13.45 0 0 13.45 161.41 36.87)"  >
<circle style="stroke: none; stroke-width: 1; stroke-dasharray: none; stroke-linecap: butt; stroke-dashoffset: 0; stroke-linejoin: miter; stroke-miterlimit: 4; fill: rgb(56,189,248); fill-rule: nonzero; opacity: 1;" vector-effect="non-scaling-stroke"  cx="0" cy="0" r="1" />
</g>
		<g transform="matrix(13.45 0 0 13.45 215.21 -16.93)"  >
<circle style="stroke: none; stroke-width: 1; stroke-dasharray: none; stroke-linecap: butt; stroke-dashoffset: 0; stroke-linejoin: miter; stroke-miterlimit: 4; fill: rgb(56,189,248); fill-rule: nonzero; opacity: 1;" vector-effect="non-scaling-stroke"  cx="0" cy="0" r="1" />
</g>
		<g transform="matrix(13.45 0 0 13.45 269.01 -16.93)"  >
<circle style="stroke: none; stroke-width: 1; stroke-dasharray: none; stroke-linecap: butt; stroke-dashoffset: 0; stroke-linejoin: miter; stroke-miterlimit: 4; fill: rgb(56,189,248); fill-rule: nonzero; opacity: 1;" vector-effect="non-scaling-stroke"  cx="0" cy="0" r="1" />
</g>
		<g transform="matrix(13.45 0 0 13.45 188.31 -43.83)"  >
<circle style="stroke: none; stroke-width: 1; stroke-dasharray: none; stroke-linecap: butt; stroke-dashoffset: 0; stroke-linejoin: miter; stroke-miterlimit: 4; fill: rgb(56,189,248); fill-rule: nonzero; opacity: 1;" vector-effect="non-scaling-stroke"  cx="0" cy="0" r="1" />
</g>
		<g transform="matrix(13.45 0 0 13.45 215.21 -70.73)"  >
<circle style="stroke: none; stroke-width: 1; stroke-dasharray: none; stroke-linecap: butt; stroke-dashoffset: 0; stroke-linejoin: miter; stroke-miterlimit: 4; fill: rgb(56,189,248); fill-rule: nonzero; opacity: 1;" vector-effect="non-scaling-stroke"  cx="0" cy="0" r="1" />
</g>
		<g transform="matrix(13.45 0 0 13.45 242.11 -97.63)"  >
<circle style="stroke: none; stroke-width: 1; stroke-dasharray: none; stroke-linecap: butt; stroke-dashoffset: 0; stroke-linejoin: miter; stroke-miterlimit: 4; fill: rgb(56,189,248); fill-rule: nonzero; opacity: 1;" vector-effect="non-scaling-stroke"  cx="0" cy="0" r="1" />
</g>
		<g transform="matrix(13.45 0 0 13.45 188.31 -97.63)"  >
<circle style="stroke: none; stroke-width: 1; stroke-dasharray: none; stroke-linecap: butt; stroke-dashoffset: 0; stroke-linejoin: miter; stroke-miterlimit: 4; fill: rgb(56,189,248); fill-rule: nonzero; opacity: 1;" vector-effect="non-scaling-stroke"  cx="0" cy="0" r="1" />
</g>
		<g transform="matrix(13.45 0 0 13.45 215.21 -124.53)"  >
<circle style="stroke: none; stroke-width: 1; stroke-dasharray: none; stroke-linecap: butt; stroke-dashoffset: 0; stroke-linejoin: miter; stroke-miterlimit: 4; fill: rgb(56,189,248); fill-rule: nonzero; opacity: 1;" vector-effect="non-scaling-stroke"  cx="0" cy="0" r="1" />
</g>
		<g transform="matrix(13.45 0 0 13.45 161.41 -124.53)"  >
<circle style="stroke: none; stroke-width: 1; stroke-dasharray: none; stroke-linecap: butt; stroke-dashoffset: 0; stroke-linejoin: miter; stroke-miterlimit: 4; fill: rgb(56,189,248); fill-rule: nonzero; opacity: 1;" vector-effect="non-scaling-stroke"  cx="0" cy="0" r="1" />
</g>
		<g transform="matrix(13.45 0 0 13.45 242.11 -151.43)"  >
<circle style="stroke: none; stroke-width: 1; stroke-dasharray: none; stroke-linecap: butt; stroke-dashoffset: 0; stroke-linejoin: miter; stroke-miterlimit: 4; fill: rgb(56,189,248); fill-rule: nonzero; opacity: 1;" vector-effect="non-scaling-stroke"  cx="0" cy="0" r="1" />
</g>
		<g transform="matrix(13.45 0 0 13.45 269.01 -178.33)"  >
<circle style="stroke: none; stroke-width: 1; stroke-dasharray: none; stroke-linecap: butt; stroke-dashoffset: 0; stroke-linejoin: miter; stroke-miterlimit: 4; fill: rgb(56,189,248); fill-rule: nonzero; opacity: 1;" vector-effect="non-scaling-stroke"  cx="0" cy="0" r="1" />
</g>
		<g transform="matrix(13.45 0 0 13.45 242.11 -205.23)"  >
<circle style="stroke: none; stroke-width: 1; stroke-dasharray: none; stroke-linecap: butt; stroke-dashoffset: 0; stroke-linejoin: miter; stroke-miterlimit: 4; fill: rgb(56,189,248); fill-rule: nonzero; opacity: 1;" vector-effect="non-scaling-stroke"  cx="0" cy="0" r="1" />
</g>
		<g transform="matrix(13.45 0 0 13.45 188.31 -205.23)"  >
<circle style="stroke: none; stroke-width: 1; stroke-dasharray: none; stroke-linecap: butt; stroke-dashoffset: 0; stroke-linejoin: miter; stroke-miterlimit: 4; fill: rgb(56,189,248); fill-rule: nonzero; opacity: 1;" vector-effect="non-scaling-stroke"  cx="0" cy="0" r="1" />
</g>
		<g transform="matrix(13.45 0 0 13.45 269.01 -232.13)"  >
<circle style="stroke: none; stroke-width: 1; stroke-dasharray: none; stroke-linecap: butt; stroke-dashoffset: 0; stroke-linejoin: miter; stroke-miterlimit: 4; fill: rgb(56,189,248); fill-rule: nonzero; opacity: 1;" vector-effect="non-scaling-stroke"  cx="0" cy="0" r="1" />
</g>
		<g transform="matrix(13.45 0 0 13.45 161.41 -232.13)"  >
<circle style="stroke: none; stroke-width: 1; stroke-dasharray: none; stroke-linecap: butt; stroke-dashoffset: 0; stroke-linejoin: miter; stroke-miterlimit: 4; fill: rgb(56,189,248); fill-rule: nonzero; opacity: 1;" vector-effect="non-scaling-stroke"  cx="0" cy="0" r="1" />
</g>
		<g transform="matrix(13.45 0 0 13.45 188.31 -259.03)"  >
<circle style="stroke: none; stroke-width: 1; stroke-dasharray: none; stroke-linecap: butt; stroke-dashoffset: 0; stroke-linejoin: miter; stroke-miterlimit: 4; fill: rgb(56,189,248); fill-rule: nonzero; opacity: 1;" vector-effect="non-scaling-stroke"  cx="0" cy="0" r="1" />
</g>
		<g transform="matrix(13.45 0 0 13.45 295.91 -43.83)"  >
<circle style="stroke: none; stroke-width: 1; stroke-dasharray: none; stroke-linecap: butt; stroke-dashoffset: 0; stroke-linejoin: miter; stroke-miterlimit: 4; fill: rgb(56,189,248); fill-rule: nonzero; opacity: 1;" vector-effect="non-scaling-stroke"  cx="0" cy="0" r="1" />
</g>
		<g transform="matrix(13.45 0 0 13.45 295.91 -97.63)"  >
<circle style="stroke: none; stroke-width: 1; stroke-dasharray: none; stroke-linecap: butt; stroke-dashoffset: 0; stroke-linejoin: miter; stroke-miterlimit: 4; fill: rgb(56,189,248); fill-rule: nonzero; opacity: 1;" vector-effect="non-scaling-stroke"  cx="0" cy="0" r="1" />
</g>
</g>
</g>
<g transform="matrix(NaN NaN NaN NaN 0 0)"  >
<g style=""   >
</g>
</g>
<g transform="matrix(NaN NaN NaN NaN 0 0)"  >
<g style=""   >
</g>
</g>
</svg>